# Blender 4.2.6 LTS
# www.blender.org
mtllib RocketPod.mtl
o AH-64D_Apache_Combat_Helicopter.001
v -0.101982 -0.010582 -0.026553
v -0.104834 -0.010568 -0.026553
v -0.102056 -0.021079 -0.024759
v -0.104908 -0.021064 -0.024759
v -0.102115 -0.029825 -0.018703
v -0.104981 -0.029811 -0.018703
v -0.102159 -0.035970 -0.010030
v -0.105011 -0.035955 -0.010030
v 0.110117 -0.037455 -0.010103
v 0.107250 -0.037440 -0.010103
v 0.110102 -0.039337 0.000334
v 0.107236 -0.039322 0.000334
v 0.110161 -0.031325 -0.018762
v 0.107294 -0.031295 -0.018762
v 0.110220 -0.022563 -0.024818
v 0.107353 -0.022549 -0.024818
v 0.107427 -0.012052 -0.026626
v 0.110293 -0.012067 -0.026626
v 0.110367 -0.001586 -0.024745
v 0.107500 -0.001571 -0.024745
v 0.107574 0.007146 -0.018629
v 0.107500 -0.001571 -0.024745
v 0.110440 0.007117 -0.018629
v 0.110367 -0.001586 -0.024745
v 0.107618 0.013232 -0.009912
v 0.110484 0.013203 -0.009912
v 0.110499 0.015026 0.000540
v 0.107632 0.015041 0.000540
v 0.107618 0.013159 0.010977
v 0.110484 0.013130 0.010977
v 0.107588 0.007014 0.019651
v 0.110440 0.006999 0.019636
v 0.110381 -0.001747 0.025693
v 0.107515 -0.001733 0.025693
v 0.107441 -0.012229 0.027501
v 0.110308 -0.012244 0.027501
v 0.107368 -0.022710 0.025619
v 0.110234 -0.022740 0.025619
v 0.107309 -0.031428 0.019504
v 0.110161 -0.031442 0.019504
v 0.107265 -0.037499 0.010786
v 0.110117 -0.037528 0.010786
v 0.110087 -0.040851 0.000334
v 0.110117 -0.038925 0.011360
v -0.105040 -0.039337 0.000393
v -0.105025 -0.037426 0.011433
v 0.110161 -0.032516 0.020562
v -0.104966 -0.031001 0.020621
v 0.110234 -0.023313 0.027016
v -0.104908 -0.021814 0.027075
v 0.110308 -0.012258 0.029000
v -0.104819 -0.010744 0.029059
v 0.110381 -0.001174 0.027089
v -0.104746 0.000340 0.027163
v 0.110455 0.008058 0.020709
v -0.104672 0.009572 0.020768
v 0.110499 0.014541 0.011566
v -0.104628 0.016040 0.011624
v 0.110514 0.016525 0.000540
v -0.104628 0.018040 0.000614
v 0.110484 0.014614 -0.010485
v -0.104643 0.016114 -0.010426
v -0.104687 0.009704 -0.019614
v 0.110440 0.008190 -0.019688
v -0.104761 0.000502 -0.026068
v 0.110367 -0.000998 -0.026141
v 0.110367 -0.000998 -0.026141
v 0.110293 -0.012067 -0.028126
v -0.104761 0.000502 -0.026068
v -0.104834 -0.010553 -0.028052
v -0.104922 -0.021637 -0.026156
v 0.110205 -0.023151 -0.026215
v -0.104981 -0.030869 -0.019761
v 0.110146 -0.032383 -0.019835
v 0.110102 -0.038852 -0.010676
v -0.105025 -0.037352 -0.010618
v -0.104658 0.014717 -0.009853
v -0.104702 0.008631 -0.018556
v -0.101791 0.014688 -0.009853
v -0.101835 0.008616 -0.018571
v -0.104628 0.016525 0.000599
v -0.101776 0.016511 0.000599
v -0.101776 0.014629 0.011036
v -0.104643 0.014644 0.011036
v -0.104687 0.008514 0.019710
v -0.101821 0.008484 0.019710
v -0.104746 -0.000248 0.025752
v -0.101879 -0.000263 0.025752
v -0.101968 -0.010759 0.027560
v -0.104819 -0.010744 0.027560
v -0.102041 -0.021240 0.025678
v -0.104893 -0.021226 0.025678
v -0.104966 -0.029943 0.019563
v -0.102100 -0.029958 0.019563
v -0.102144 -0.036044 0.010860
v -0.105011 -0.036014 0.010860
v -0.102159 -0.037852 0.000408
v -0.105025 -0.037837 0.000408
v 0.110117 -0.037528 0.010786
v 0.110117 -0.038925 0.011360
v 0.110102 -0.039337 0.000334
v 0.110087 -0.040851 0.000334
v 0.110161 -0.031442 0.019504
v 0.110161 -0.032516 0.020562
v 0.110234 -0.022740 0.025619
v 0.110234 -0.023313 0.027016
v 0.110308 -0.012258 0.029000
v 0.110308 -0.012244 0.027501
v 0.110381 -0.001747 0.025693
v 0.110381 -0.001174 0.027089
v 0.110455 0.008058 0.020709
v 0.110440 0.006999 0.019636
v 0.110484 0.013130 0.010977
v 0.110499 0.014541 0.011566
v 0.110514 0.016525 0.000540
v 0.110499 0.015026 0.000540
v 0.110484 0.014614 -0.010485
v 0.110484 0.013203 -0.009912
v 0.110440 0.007117 -0.018629
v 0.110440 0.008190 -0.019688
v 0.110367 -0.000998 -0.026141
v 0.110367 -0.001586 -0.024745
v 0.110293 -0.012067 -0.028126
v 0.110293 -0.012067 -0.026626
v 0.110205 -0.023151 -0.026215
v 0.110220 -0.022563 -0.024818
v 0.110161 -0.031325 -0.018762
v 0.110146 -0.032383 -0.019835
v 0.110102 -0.038852 -0.010676
v 0.110117 -0.037455 -0.010103
v -0.104981 -0.030869 -0.019761
v -0.105025 -0.037352 -0.010618
v -0.104981 -0.029811 -0.018703
v -0.105011 -0.035955 -0.010030
v -0.104908 -0.021064 -0.024759
v -0.104922 -0.021637 -0.026156
v -0.104834 -0.010568 -0.026553
v -0.104834 -0.010553 -0.028052
v -0.104761 -0.000072 -0.024671
v -0.104761 0.000502 -0.026068
v -0.104687 0.009704 -0.019614
v -0.104702 0.008631 -0.018556
v -0.104658 0.014717 -0.009853
v -0.104643 0.016114 -0.010426
v -0.104628 0.018040 0.000614
v -0.104628 0.016525 0.000599
v -0.104628 0.016040 0.011624
v -0.104643 0.014644 0.011036
v -0.104672 0.009572 0.020768
v -0.104687 0.008514 0.019710
v -0.104746 0.000340 0.027163
v -0.104746 -0.000248 0.025752
v -0.104819 -0.010744 0.027560
v -0.104819 -0.010744 0.029059
v -0.104908 -0.021814 0.027075
v -0.104893 -0.021226 0.025678
v -0.104966 -0.029943 0.019563
v -0.104966 -0.031001 0.020621
v -0.105025 -0.037426 0.011433
v -0.105011 -0.036014 0.010860
v -0.105025 -0.037837 0.000408
v -0.105040 -0.039337 0.000393
v 0.107588 0.007014 0.019651
v 0.107515 -0.001733 0.025693
v 0.107618 0.013159 0.010977
v 0.107441 -0.012229 0.027501
v 0.107632 0.015041 0.000540
v 0.107618 0.013232 -0.009912
v 0.107574 0.007146 -0.018629
v 0.107500 -0.001571 -0.024745
v 0.107427 -0.012052 -0.026626
v 0.107353 -0.022549 -0.024818
v 0.107309 -0.031428 0.019504
v 0.107368 -0.022710 0.025619
v 0.107236 -0.039322 0.000334
v 0.107265 -0.037499 0.010786
v 0.107294 -0.031295 -0.018762
v 0.107250 -0.037440 -0.010103
v -0.101835 0.008616 -0.018571
v -0.101894 -0.000101 -0.024686
v -0.102056 -0.021079 -0.024759
v -0.101982 -0.010582 -0.026553
v -0.102159 -0.035970 -0.010030
v -0.102115 -0.029825 -0.018703
v -0.102144 -0.036044 0.010860
v -0.102159 -0.037852 0.000408
v -0.102041 -0.021240 0.025678
v -0.102100 -0.029958 0.019563
v -0.101791 0.014688 -0.009853
v -0.101968 -0.010759 0.027560
v -0.101776 0.016511 0.000599
v -0.101879 -0.000263 0.025752
v -0.101821 0.008484 0.019710
v -0.101776 0.014629 0.011036
v -0.101894 -0.000101 -0.024686
v -0.104761 -0.000072 -0.024671
v -0.101894 -0.000101 -0.024686
v -0.104761 -0.000072 -0.024671
v 0.040216 0.023714 -0.007413
v 0.040157 0.019465 0.008317
v 0.040039 0.019436 -0.007045
v 0.040098 0.023729 0.008758
v 0.034938 0.023729 0.008670
v 0.034865 0.019583 -0.007134
v 0.034968 0.019465 0.008243
v 0.035056 0.023846 -0.007530
v -0.029274 0.024199 -0.007398
v -0.029332 0.019951 0.008346
v -0.029450 0.019921 -0.007016
v -0.029391 0.024214 0.008772
v -0.034551 0.024214 0.008684
v -0.034610 0.020068 -0.007104
v -0.034522 0.019951 0.008273
v -0.034433 0.024331 -0.007501
v -0.034919 0.027845 -0.004958
v -0.010721 0.019568 -0.004987
v -0.034919 0.027815 0.005318
v -0.010721 0.019539 0.005288
v 0.047404 0.027271 -0.004987
v 0.047346 0.019157 -0.005017
v -0.034919 0.027845 -0.004958
v -0.010721 0.019568 -0.004987
v 0.047404 0.027242 0.005288
v -0.034919 0.027815 0.005318
v 0.047346 0.019127 0.005259
v -0.010721 0.019539 0.005288
v 0.047346 0.019157 -0.005017
v 0.047346 0.019127 0.005259
v 0.047404 0.027271 -0.004987
v 0.047404 0.027242 0.005288
v -0.050354 0.027962 -0.008618
v -0.023158 0.027786 -0.008633
v -0.050413 0.019862 -0.008648
v -0.023217 0.019671 -0.008662
v -0.023217 0.019671 -0.008662
v -0.023217 0.019612 0.008949
v -0.050413 0.019862 -0.008648
v -0.050413 0.019804 0.008964
v -0.023158 0.027786 -0.008633
v -0.023158 0.027727 0.008978
v -0.050354 0.027962 -0.008618
v -0.050354 0.027918 0.008993
v -0.050354 0.027918 0.008993
v -0.050413 0.019804 0.008964
v -0.023158 0.027727 0.008978
v -0.023217 0.019612 0.008949
v -0.046885 0.020098 0.003686
v -0.046944 0.011248 0.003642
v -0.043945 0.020083 0.000746
v -0.044003 0.011233 0.000717
v -0.046885 0.020112 -0.002194
v -0.046944 0.011263 -0.002224
v -0.049825 0.020127 0.000746
v -0.049884 0.011277 0.000717
v 0.034865 0.019583 -0.007134
v 0.040039 0.019436 -0.007045
v 0.034968 0.019465 0.008243
v 0.040157 0.019465 0.008317
v -0.034610 0.020068 -0.007104
v -0.029450 0.019921 -0.007016
v -0.034522 0.019951 0.008273
v -0.029332 0.019951 0.008346
v 0.040275 0.013556 0.013624
v 0.040363 0.015658 0.014741
v 0.034924 0.015732 0.014991
v 0.034791 0.013673 0.013712
v 0.037629 0.014232 0.016711
v 0.037570 0.011895 0.015005
v 0.037629 0.014232 0.016711
v 0.037570 0.011895 0.015005
v 0.034835 0.013806 -0.012470
v 0.037555 0.012292 -0.013837
v 0.040304 0.013850 -0.012308
v 0.034924 0.015732 0.014991
v 0.037629 0.014232 0.016711
v 0.040363 0.015658 0.014741
v 0.040275 0.015952 -0.013587
v 0.040304 0.013850 -0.012308
v 0.034821 0.015952 -0.013572
v 0.034835 0.013806 -0.012470
v 0.037599 0.014644 -0.015513
v 0.037555 0.012292 -0.013837
v 0.037599 0.014644 -0.015513
v 0.037555 0.012292 -0.013837
v -0.029215 0.014041 0.013638
v -0.029127 0.016143 0.014770
v -0.034566 0.016231 0.015005
v -0.034698 0.014173 0.013727
v -0.031861 0.014717 0.016725
v -0.031920 0.012380 0.015020
v -0.031861 0.014717 0.016725
v -0.031920 0.012380 0.015020
v 0.040275 0.013556 0.013624
v 0.037570 0.011895 0.015005
v 0.034791 0.013673 0.013712
v -0.034654 0.014291 -0.012440
v -0.031934 0.012777 -0.013808
v -0.029185 0.014350 -0.012293
v -0.034566 0.016231 0.015005
v -0.031861 0.014717 0.016725
v -0.029127 0.016143 0.014770
v 0.040275 0.015952 -0.013587
v 0.037599 0.014644 -0.015513
v 0.034821 0.015952 -0.013572
v -0.029215 0.016437 -0.013558
v -0.029185 0.014350 -0.012293
v -0.034669 0.016437 -0.013558
v -0.034654 0.014291 -0.012440
v -0.031875 0.015129 -0.015498
v -0.031934 0.012777 -0.013808
v -0.031875 0.015129 -0.015498
v -0.031934 0.012777 -0.013808
v -0.029215 0.014041 0.013638
v -0.031920 0.012380 0.015020
v -0.034698 0.014173 0.013727
v -0.029215 0.016437 -0.013558
v -0.031875 0.015129 -0.015498
v -0.034669 0.016437 -0.013558
vn 0.0008 0.1685 0.9857
vn 0.0009 0.1685 0.9857
vn 0.0030 0.5693 0.8222
vn 0.0028 0.5692 0.8222
vn 0.0040 0.8159 0.5781
vn 0.0043 0.8160 0.5781
vn 0.0051 0.9841 0.1775
vn 0.0052 0.9841 0.1775
vn 0.0085 0.8161 0.5778
vn 0.0043 0.8155 0.5787
vn 0.0028 0.5686 0.8226
vn 0.0060 0.5692 0.8221
vn 0.0009 0.1697 0.9855
vn 0.0008 0.1697 0.9855
vn -0.0009 -0.1766 0.9843
vn -0.0058 -0.5743 0.8186
vn -0.0030 -0.5750 0.8182
vn -0.0083 -0.8199 0.5725
vn -0.0052 -0.9851 0.1718
vn -0.0100 -0.9853 0.1705
vn -0.0051 -0.9841 -0.1775
vn -0.0100 -0.9838 -0.1787
vn -0.0083 -0.8159 -0.5781
vn -0.0073 -0.8161 -0.5779
vn -0.0073 -0.5693 -0.8221
vn -0.0028 -0.5683 -0.8228
vn -0.0008 -0.1698 -0.9855
vn -0.0009 -0.1697 -0.9855
vn 0.0009 0.1767 -0.9843
vn 0.0019 0.1765 -0.9843
vn 0.0060 0.5742 -0.8187
vn 0.0028 0.5749 -0.8182
vn 0.0040 0.8206 -0.5715
vn 0.0083 0.8199 -0.5724
vn 0.0100 0.9851 -0.1718
vn 0.0052 0.9853 -0.1705
vn -0.0069 -0.9851 0.1721
vn -0.0068 -0.9853 0.1706
vn -0.0056 -0.8206 0.5715
vn -0.0055 -0.8195 0.5731
vn -0.0038 -0.5741 0.8187
vn -0.0038 -0.5748 0.8183
vn -0.0010 -0.1766 0.9843
vn -0.0010 -0.1764 0.9843
vn 0.0015 0.1699 0.9855
vn 0.0015 0.1686 0.9857
vn 0.0043 0.5685 0.8227
vn 0.0042 0.5694 0.8221
vn 0.0059 0.8157 0.5784
vn 0.0058 0.8164 0.5775
vn 0.0070 0.9842 0.1771
vn 0.0069 0.9839 0.1787
vn 0.0069 0.9853 -0.1708
vn 0.0068 0.9851 -0.1719
vn 0.0056 0.8201 -0.5722
vn 0.0056 0.8200 -0.5724
vn 0.0038 0.5742 -0.8187
vn 0.0037 0.5747 -0.8183
vn 0.0009 0.1765 -0.9843
vn 0.0009 0.1766 -0.9843
vn -0.0015 -0.1686 -0.9857
vn -0.0015 -0.1699 -0.9855
vn -0.0042 -0.5694 -0.8220
vn -0.0043 -0.5685 -0.8227
vn -0.0059 -0.8168 -0.5769
vn -0.0058 -0.8157 -0.5784
vn -0.0069 -0.9841 -0.1774
vn -0.0070 -0.9839 -0.1787
vn -0.0083 -0.8195 0.5731
vn -0.0013 -0.8206 0.5715
vn -0.0048 -0.9854 0.1705
vn -0.0100 -0.9851 0.1718
vn -0.0048 -0.9841 -0.1775
vn -0.0051 -0.9841 -0.1774
vn -0.0085 -0.8166 -0.5771
vn -0.0043 -0.8160 -0.5781
vn -0.0030 -0.5677 -0.8232
vn -0.0060 -0.5683 -0.8228
vn 0.0030 0.5743 -0.8187
vn 0.0028 0.5742 -0.8187
vn 0.0043 0.8195 -0.5731
vn 0.0086 0.8201 -0.5721
vn 0.0103 0.9853 -0.1705
vn 0.0052 0.9851 -0.1718
vn 0.0052 0.9841 0.1774
vn 1.0000 -0.0005 -0.0013
vn 1.0000 -0.0099 -0.0010
vn 1.0000 -0.0016 -0.0039
vn 1.0000 -0.0028 -0.0028
vn 1.0000 -0.0065 -0.0027
vn 1.0000 -0.0046 -0.0047
vn 1.0000 -0.0067 -0.0001
vn 1.0000 -0.0066 -0.0027
vn 1.0000 -0.0065 0.0027
vn 1.0000 -0.0066 -0.0001
vn 0.9999 -0.0105 -0.0036
vn 1.0000 -0.0053 0.0022
vn 0.9999 -0.0098 -0.0019
vn 0.9999 -0.0111 -0.0030
vn 0.9999 -0.0100 -0.0004
vn 0.9999 -0.0104 -0.0005
vn 0.9999 -0.0100 -0.0010
vn 1.0000 -0.0067 -0.0000
vn 1.0000 -0.0066 -0.0028
vn 1.0000 -0.0079 -0.0000
vn 0.9999 -0.0082 -0.0073
vn 0.9999 -0.0110 -0.0061
vn 0.9999 -0.0095 -0.0046
vn 0.9999 -0.0099 -0.0019
vn 0.9999 -0.0105 -0.0005
vn 1.0000 -0.0099 -0.0004
vn -1.0000 0.0028 -0.0028
vn -1.0000 0.0089 0.0028
vn -0.9999 0.0119 0.0051
vn -1.0000 0.0038 -0.0038
vn -0.9999 0.0082 0.0067
vn -1.0000 0.0079 0.0001
vn -1.0000 0.0065 0.0027
vn -1.0000 0.0066 0.0001
vn -0.9999 0.0105 -0.0035
vn -1.0000 0.0053 0.0022
vn -0.9999 0.0100 -0.0019
vn -0.9999 0.0111 -0.0029
vn -1.0000 -0.0000 0.0014
vn -0.9999 0.0111 0.0009
vn -1.0000 -0.0000 -0.0000
vn -0.9999 0.0105 0.0005
vn -0.9999 0.0111 0.0031
vn -0.9999 0.0099 0.0019
vn -0.9999 0.0105 0.0037
vn -1.0000 0.0052 -0.0022
vn -1.0000 0.0065 -0.0027
vn -1.0000 0.0066 -0.0000
vn -1.0000 0.0080 -0.0000
vn -0.9999 0.0084 -0.0072
vn -0.9999 0.0123 -0.0056
vn -1.0000 0.0037 0.0037
vn -1.0000 0.0038 0.0038
vn -1.0000 0.0094 -0.0014
vn -1.0000 0.0098 -0.0004
vn -1.0000 0.0100 -0.0004
vn -1.0000 0.0098 0.0004
vn -0.9999 0.0100 0.0004
vn 0.9999 -0.0117 -0.0048
vn 1.0000 -0.0071 -0.0002
vn 1.0000 -0.0076 -0.0000
vn 1.0000 -0.0070 -0.0000
vn 1.0000 -0.0097 0.0017
vn 1.0000 -0.0076 -0.0004
vn 1.0000 -0.0070 0.0002
vn 1.0000 -0.0070 -0.0003
vn 1.0000 -0.0067 -0.0004
vn 1.0000 -0.0070 0.0004
vn 1.0000 -0.0078 -0.0006
vn 1.0000 -0.0044 -0.0020
vn 1.0000 -0.0064 0.0006
vn 1.0000 -0.0068 0.0001
vn -1.0000 0.0077 -0.0014
vn -1.0000 0.0077 0.0039
vn -1.0000 0.0074 0.0004
vn -1.0000 0.0063 -0.0006
vn -1.0000 0.0074 0.0007
vn -1.0000 0.0041 0.0007
vn -1.0000 0.0069 -0.0000
vn -1.0000 0.0063 0.0006
vn -1.0000 0.0071 0.0001
vn -1.0000 0.0070 -0.0000
vn -1.0000 0.0072 0.0002
vn -1.0000 0.0088 0.0018
vn -1.0000 0.0060 -0.0010
vn -1.0000 0.0084 0.0015
vn 0.0013 -0.5743 0.8186
vn -0.0015 -0.5749 0.8182
vn 0.0034 -0.1754 0.9845
vn -0.0009 -0.1765 0.9843
vn 0.9991 -0.0420 -0.0076
vn 0.9999 0.0131 0.0073
vn -0.9999 -0.0077 0.0066
vn -0.9990 0.0441 -0.0070
vn 0.9991 -0.0418 -0.0076
vn 0.9999 0.0131 0.0072
vn -1.0000 -0.0074 0.0057
vn -0.9991 0.0409 -0.0070
vn -0.3236 -0.9462 -0.0028
vn -0.3236 -0.9462 -0.0027
vn -0.0003 0.0037 -1.0000
vn -0.0005 0.0020 -1.0000
vn 0.0003 -0.0036 1.0000
vn 0.0005 -0.0022 1.0000
vn -0.0071 -1.0000 -0.0029
vn -0.0071 -1.0000 -0.0028
vn 1.0000 -0.0071 -0.0000
vn -0.0005 0.0037 -1.0000
vn -0.0005 0.0036 -1.0000
vn -0.0070 -1.0000 -0.0034
vn -0.0071 -1.0000 -0.0033
vn 1.0000 -0.0073 -0.0000
vn -1.0000 0.0073 -0.0000
vn 0.0005 -0.0036 1.0000
vn 0.7071 -0.0082 0.7071
vn 0.7051 -0.0069 0.7090
vn 0.7071 -0.0023 -0.7071
vn -0.7071 0.0070 -0.7071
vn -0.7072 0.0071 -0.7070
vn -0.7071 0.0024 0.7071
vn -0.7053 0.0012 0.7089
vn -0.0283 -0.9996 -0.0075
vn -0.0000 -1.0000 0.0019
vn -0.0283 -0.9996 -0.0074
vn -0.0000 -1.0000 0.0020
vn -0.0001 1.0000 0.0072
vn 0.0256 0.9997 -0.0007
vn 0.9999 0.0145 -0.0061
vn 0.9982 -0.0107 -0.0586
vn -0.9983 0.0369 0.0444
vn -0.9993 -0.0034 -0.0360
vn 0.6138 -0.4755 0.6302
vn 0.6626 -0.3729 0.6496
vn -0.5996 -0.4619 0.6535
vn -0.6367 -0.3768 0.6728
vn -0.0085 -0.6785 0.7346
vn -0.0320 -0.6862 0.7267
vn -0.0213 -0.6809 0.7321
vn -0.1530 0.6130 0.7752
vn 0.2538 0.5814 0.7730
vn -0.0130 0.6440 0.7649
vn 0.9999 0.0111 -0.0044
vn 0.9957 -0.0338 0.0860
vn -1.0000 -0.0023 0.0082
vn -0.9989 0.0431 -0.0175
vn 0.6167 -0.4645 -0.6356
vn 0.6557 -0.3858 -0.6490
vn -0.6419 -0.3536 -0.6804
vn -0.5899 -0.4613 -0.6628
vn 0.9999 0.0144 -0.0060
vn 0.9983 -0.0105 -0.0581
vn -0.9984 0.0367 0.0440
vn -0.9994 -0.0033 -0.0358
vn 0.6139 -0.4753 0.6303
vn 0.6608 -0.3771 0.6490
vn -0.6013 -0.4610 0.6526
vn -0.6379 -0.3763 0.6719
vn 0.0106 -0.6680 -0.7440
vn 0.0235 -0.6615 -0.7496
vn -0.0987 -0.6816 -0.7250
vn -0.0082 -0.6785 0.7346
vn -0.0320 -0.6881 0.7249
vn -0.0151 -0.6798 0.7333
vn -0.1492 0.6140 0.7751
vn 0.2490 0.5829 0.7734
vn 0.2496 0.6040 -0.7569
vn -0.2550 0.5925 -0.7642
vn 0.0339 0.6603 -0.7503
vn 0.9999 0.0114 -0.0048
vn 0.9958 -0.0334 0.0852
vn -0.9999 -0.0017 0.0101
vn -0.9991 0.0402 -0.0135
vn 0.6168 -0.4694 -0.6318
vn 0.6598 -0.3825 -0.6468
vn -0.6398 -0.3586 -0.6797
vn -0.5900 -0.4613 -0.6626
vn 0.0105 -0.6669 -0.7450
vn 0.0225 -0.6608 -0.7502
vn -0.1022 -0.6812 -0.7249
vn 0.2555 0.6022 -0.7564
vn -0.2525 0.5938 -0.7640
vn 0.0319 0.6607 -0.7500
vt 0.022100 0.009900
vt 0.022100 0.005000
vt 0.039400 0.009900
vt 0.039400 0.005000
vt 0.056700 0.009900
vt 0.056700 0.005000
vt 0.074000 0.009900
vt 0.074000 0.005000
vt 0.073900 0.384100
vt 0.073900 0.379200
vt 0.091300 0.384100
vt 0.091300 0.379200
vt 0.056600 0.384100
vt 0.056600 0.379200
vt 0.039300 0.384100
vt 0.039300 0.379200
vt 0.022100 0.379200
vt 0.022100 0.384100
vt 0.004800 0.384100
vt 0.004800 0.379200
vt 0.264300 0.379200
vt 0.281600 0.379200
vt 0.264300 0.384100
vt 0.281600 0.384100
vt 0.247000 0.379200
vt 0.247000 0.384100
vt 0.229700 0.384100
vt 0.229700 0.379200
vt 0.212400 0.379200
vt 0.212400 0.384100
vt 0.195100 0.379200
vt 0.195100 0.384100
vt 0.177800 0.384100
vt 0.177800 0.379200
vt 0.160500 0.379200
vt 0.160500 0.384100
vt 0.143200 0.379200
vt 0.143200 0.384100
vt 0.125900 0.379200
vt 0.125900 0.384100
vt 0.108600 0.379200
vt 0.108600 0.384100
vt 0.091300 0.377400
vt 0.108600 0.377400
vt 0.091300 0.011600
vt 0.108600 0.011600
vt 0.125900 0.377400
vt 0.125900 0.011600
vt 0.143200 0.377400
vt 0.143200 0.011600
vt 0.160500 0.377400
vt 0.160500 0.011600
vt 0.177800 0.377400
vt 0.177800 0.011600
vt 0.195100 0.377400
vt 0.195100 0.011600
vt 0.212400 0.377400
vt 0.212400 0.011600
vt 0.229700 0.377400
vt 0.229700 0.011600
vt 0.247000 0.377400
vt 0.247000 0.011600
vt 0.264300 0.011600
vt 0.264300 0.377400
vt 0.281700 0.011600
vt 0.281700 0.377400
vt 0.004800 0.377400
vt 0.022100 0.377400
vt 0.004800 0.011600
vt 0.022100 0.011600
vt 0.039400 0.011600
vt 0.039400 0.377400
vt 0.056700 0.011600
vt 0.056700 0.377400
vt 0.074000 0.377400
vt 0.074000 0.011600
vt 0.247000 0.005000
vt 0.264300 0.005000
vt 0.247000 0.009900
vt 0.264300 0.009900
vt 0.229700 0.005000
vt 0.229700 0.009900
vt 0.212400 0.009900
vt 0.212400 0.005000
vt 0.195100 0.005000
vt 0.195100 0.009900
vt 0.177800 0.005000
vt 0.177800 0.009900
vt 0.160500 0.009900
vt 0.160500 0.005000
vt 0.143200 0.009900
vt 0.143200 0.005000
vt 0.125900 0.005000
vt 0.125900 0.009900
vt 0.108600 0.009900
vt 0.108600 0.005000
vt 0.091300 0.009900
vt 0.091300 0.005000
vt 0.112000 0.419500
vt 0.109500 0.418500
vt 0.108700 0.438000
vt 0.106100 0.438000
vt 0.122700 0.404200
vt 0.120800 0.402300
vt 0.138100 0.393400
vt 0.137000 0.391000
vt 0.156500 0.387500
vt 0.156500 0.390200
vt 0.175000 0.393400
vt 0.176000 0.391000
vt 0.192200 0.402300
vt 0.190300 0.404200
vt 0.201100 0.419500
vt 0.203500 0.418500
vt 0.207000 0.438000
vt 0.204300 0.438000
vt 0.203500 0.457400
vt 0.201100 0.456400
vt 0.190300 0.471800
vt 0.192200 0.473600
vt 0.176000 0.485000
vt 0.175000 0.482500
vt 0.156500 0.488400
vt 0.156500 0.485800
vt 0.137000 0.485000
vt 0.138100 0.482500
vt 0.122700 0.471800
vt 0.120800 0.473600
vt 0.109500 0.457400
vt 0.112000 0.456400
vt 0.018300 0.473100
vt 0.007000 0.456900
vt 0.020200 0.471300
vt 0.009500 0.455900
vt 0.035500 0.482000
vt 0.034500 0.484500
vt 0.054000 0.485300
vt 0.054000 0.487900
vt 0.072500 0.482000
vt 0.073500 0.484500
vt 0.089700 0.473100
vt 0.087800 0.471300
vt 0.098500 0.455900
vt 0.101000 0.456900
vt 0.104400 0.437500
vt 0.101800 0.437500
vt 0.101000 0.418000
vt 0.098500 0.419000
vt 0.089700 0.401800
vt 0.087800 0.403700
vt 0.073500 0.390500
vt 0.072500 0.392900
vt 0.054000 0.389700
vt 0.054000 0.387000
vt 0.034500 0.390500
vt 0.035500 0.392900
vt 0.020200 0.403700
vt 0.018300 0.401800
vt 0.007000 0.418000
vt 0.009500 0.419000
vt 0.006200 0.437500
vt 0.003600 0.437500
vt 0.189300 0.405200
vt 0.174400 0.394800
vt 0.199700 0.420100
vt 0.156500 0.391600
vt 0.202900 0.438000
vt 0.199700 0.455900
vt 0.189300 0.470800
vt 0.174400 0.481200
vt 0.156500 0.484300
vt 0.138600 0.481200
vt 0.123800 0.405200
vt 0.138600 0.394800
vt 0.110200 0.438000
vt 0.113300 0.420100
vt 0.123800 0.470800
vt 0.113300 0.455900
vt 0.086800 0.470300
vt 0.071900 0.480700
vt 0.036100 0.480700
vt 0.054000 0.483800
vt 0.010800 0.455400
vt 0.021200 0.470300
vt 0.010800 0.419600
vt 0.007700 0.437500
vt 0.036100 0.394300
vt 0.021200 0.404700
vt 0.097200 0.455400
vt 0.054000 0.391100
vt 0.100400 0.437500
vt 0.071900 0.394300
vt 0.086800 0.404700
vt 0.097200 0.419600
vt 0.281700 0.009900
vt 0.281700 0.005000
vt 0.004800 0.009900
vt 0.004800 0.005000
vt 0.248000 0.426300
vt 0.252800 0.402900
vt 0.252800 0.426300
vt 0.248000 0.402900
vt 0.241800 0.402900
vt 0.236900 0.426300
vt 0.236900 0.402900
vt 0.241800 0.426300
vt 0.249100 0.480900
vt 0.253900 0.457400
vt 0.253900 0.480900
vt 0.249100 0.457400
vt 0.242800 0.457400
vt 0.238000 0.480900
vt 0.238000 0.457400
vt 0.242800 0.480900
vt 0.454900 0.272300
vt 0.407600 0.272300
vt 0.454900 0.289800
vt 0.407600 0.289800
vt 0.555200 0.503000
vt 0.555200 0.516800
vt 0.415200 0.503000
vt 0.456500 0.516800
vt 0.555100 0.327100
vt 0.415100 0.327100
vt 0.555100 0.313300
vt 0.456300 0.313300
vt 0.308900 0.272300
vt 0.308900 0.289800
vt 0.295900 0.272300
vt 0.295900 0.289800
vt 0.389000 0.503000
vt 0.435200 0.503000
vt 0.389000 0.516800
vt 0.435200 0.516800
vt 0.468900 0.266000
vt 0.468900 0.296000
vt 0.515100 0.266000
vt 0.515100 0.296000
vt 0.457900 0.266000
vt 0.457900 0.296000
vt 0.526100 0.266000
vt 0.526100 0.296000
vt 0.388800 0.327100
vt 0.388800 0.313300
vt 0.435100 0.327100
vt 0.435100 0.313300
vt 0.394800 0.310800
vt 0.394800 0.295800
vt 0.399800 0.310800
vt 0.399800 0.295800
vt 0.389800 0.310800
vt 0.389800 0.295800
vt 0.260800 0.404100
vt 0.267000 0.404100
vt 0.260800 0.427600
vt 0.267000 0.427600
vt 0.261400 0.458500
vt 0.267700 0.458500
vt 0.261400 0.482000
vt 0.267700 0.482000
vt 0.258000 0.396200
vt 0.255600 0.394800
vt 0.234100 0.394700
vt 0.231700 0.396100
vt 0.258600 0.391200
vt 0.260800 0.392500
vt 0.231100 0.391000
vt 0.228900 0.392300
vt 0.260900 0.395200
vt 0.264100 0.392300
vt 0.267200 0.395400
vt 0.241900 0.391700
vt 0.245100 0.388600
vt 0.248200 0.391800
vt 0.255100 0.435100
vt 0.257600 0.433600
vt 0.234600 0.435300
vt 0.232100 0.433800
vt 0.258000 0.438900
vt 0.260100 0.437500
vt 0.231800 0.439000
vt 0.229600 0.437700
vt 0.259100 0.450800
vt 0.256700 0.449400
vt 0.235200 0.449200
vt 0.232800 0.450700
vt 0.259700 0.445800
vt 0.261900 0.447100
vt 0.232200 0.445600
vt 0.230000 0.446900
vt 0.267200 0.436000
vt 0.264100 0.439100
vt 0.260900 0.436100
vt 0.261500 0.449600
vt 0.264700 0.446600
vt 0.267800 0.449700
vt 0.243000 0.446200
vt 0.246200 0.443200
vt 0.249200 0.446400
vt 0.248200 0.437600
vt 0.245100 0.440800
vt 0.241900 0.437800
vt 0.256200 0.489700
vt 0.258600 0.488200
vt 0.235700 0.489800
vt 0.233200 0.488400
vt 0.259000 0.493400
vt 0.261200 0.492100
vt 0.232800 0.493600
vt 0.230600 0.492300
vt 0.267800 0.490300
vt 0.264700 0.493500
vt 0.261500 0.490500
vt 0.249200 0.492200
vt 0.246200 0.495300
vt 0.243000 0.492300
s 0
usemtl mat_5-Main_Body_1.jpg
f 1/1/1 2/2/1 3/3/1
f 3/3/2 2/2/2 4/4/2
f 3/3/3 4/4/3 5/5/3
f 5/5/4 4/4/4 6/6/4
f 5/5/5 6/6/5 7/7/5
f 7/7/6 6/6/6 8/8/6
f 9/9/7 10/10/7 11/11/7
f 11/11/8 10/10/8 12/12/8
f 13/13/9 14/14/9 9/9/9
f 9/9/10 14/14/10 10/10/10
f 15/15/11 16/16/11 13/13/11
f 13/13/12 16/16/12 14/14/12
f 17/17/13 16/16/13 18/18/13
f 18/18/14 16/16/14 15/15/14
f 19/19/15 20/20/15 18/18/15
f 18/18/15 20/20/15 17/17/15
f 21/21/16 22/22/16 23/23/16
f 23/23/17 22/22/17 24/24/17
f 25/25/18 21/21/18 26/26/18
f 26/26/18 21/21/18 23/23/18
f 27/27/19 28/28/19 26/26/19
f 26/26/20 28/28/20 25/25/20
f 28/28/21 27/27/21 29/29/21
f 29/29/22 27/27/22 30/30/22
f 29/29/23 30/30/23 31/31/23
f 31/31/24 30/30/24 32/32/24
f 32/32/25 33/33/25 31/31/25
f 31/31/26 33/33/26 34/34/26
f 34/34/27 33/33/27 35/35/27
f 35/35/28 33/33/28 36/36/28
f 35/35/29 36/36/29 37/37/29
f 37/37/30 36/36/30 38/38/30
f 37/37/31 38/38/31 39/39/31
f 39/39/32 38/38/32 40/40/32
f 39/39/33 40/40/33 41/41/33
f 41/41/34 40/40/34 42/42/34
f 41/41/35 42/42/35 12/12/35
f 12/12/36 42/42/36 11/11/36
f 43/43/37 44/44/37 45/45/37
f 45/45/38 44/44/38 46/46/38
f 47/47/39 48/48/39 44/44/39
f 44/44/40 48/48/40 46/46/40
f 49/49/41 50/50/41 47/47/41
f 47/47/42 50/50/42 48/48/42
f 49/49/43 51/51/43 50/50/43
f 50/50/44 51/51/44 52/52/44
f 53/53/45 54/54/45 51/51/45
f 51/51/46 54/54/46 52/52/46
f 53/53/47 55/55/47 54/54/47
f 54/54/48 55/55/48 56/56/48
f 55/55/49 57/57/49 56/56/49
f 56/56/50 57/57/50 58/58/50
f 59/59/51 60/60/51 57/57/51
f 57/57/52 60/60/52 58/58/52
f 59/59/53 61/61/53 60/60/53
f 60/60/54 61/61/54 62/62/54
f 62/62/55 61/61/55 63/63/55
f 63/63/56 61/61/56 64/64/56
f 63/63/57 64/64/57 65/65/57
f 65/65/58 64/64/58 66/66/58
f 67/67/59 68/68/59 69/69/59
f 69/69/60 68/68/60 70/70/60
f 70/70/61 68/68/61 71/71/61
f 71/71/62 68/68/62 72/72/62
f 71/71/63 72/72/63 73/73/63
f 73/73/64 72/72/64 74/74/64
f 74/74/65 75/75/65 73/73/65
f 73/73/66 75/75/66 76/76/66
f 76/76/67 75/75/67 45/45/67
f 45/45/68 75/75/68 43/43/68
f 77/77/69 78/78/69 79/79/69
f 79/79/70 78/78/70 80/80/70
f 81/81/71 77/77/71 82/82/71
f 82/82/72 77/77/72 79/79/72
f 82/82/73 83/83/73 81/81/73
f 81/81/74 83/83/74 84/84/74
f 85/85/75 84/84/75 86/86/75
f 86/86/76 84/84/76 83/83/76
f 87/87/77 85/85/77 88/88/77
f 88/88/78 85/85/78 86/86/78
f 88/88/28 89/89/28 87/87/28
f 87/87/28 89/89/28 90/90/28
f 89/89/29 91/91/29 90/90/29
f 90/90/29 91/91/29 92/92/29
f 93/93/79 92/92/79 94/94/79
f 94/94/80 92/92/80 91/91/80
f 94/94/81 95/95/81 93/93/81
f 93/93/82 95/95/82 96/96/82
f 95/95/83 97/97/83 96/96/83
f 96/96/84 97/97/84 98/98/84
f 7/7/85 8/8/85 97/97/85
f 97/97/85 8/8/85 98/98/85
f 99/99/86 100/100/86 101/101/86
f 101/101/87 100/100/87 102/102/87
f 99/99/88 103/103/88 100/100/88
f 100/100/89 103/103/89 104/104/89
f 105/105/90 106/106/90 103/103/90
f 103/103/91 106/106/91 104/104/91
f 107/107/92 106/106/92 108/108/92
f 108/108/93 106/106/93 105/105/93
f 109/109/94 110/110/94 108/108/94
f 108/108/95 110/110/95 107/107/95
f 111/111/96 110/110/96 112/112/96
f 112/112/97 110/110/97 109/109/97
f 113/113/98 114/114/98 112/112/98
f 112/112/99 114/114/99 111/111/99
f 115/115/100 114/114/100 116/116/100
f 116/116/101 114/114/101 113/113/101
f 115/115/102 116/116/102 117/117/102
f 117/117/86 116/116/86 118/118/86
f 118/118/88 119/119/88 117/117/88
f 117/117/89 119/119/89 120/120/89
f 120/120/91 119/119/91 121/121/91
f 121/121/90 119/119/90 122/122/90
f 123/123/103 121/121/103 124/124/103
f 124/124/104 121/121/104 122/122/104
f 123/123/105 124/124/105 125/125/105
f 125/125/106 124/124/106 126/126/106
f 126/126/107 127/127/107 125/125/107
f 125/125/108 127/127/108 128/128/108
f 128/128/99 127/127/99 129/129/99
f 129/129/109 127/127/109 130/130/109
f 130/130/110 101/101/110 129/129/110
f 129/129/111 101/101/111 102/102/111
f 131/131/112 132/132/112 133/133/112
f 133/133/113 132/132/113 134/134/113
f 135/135/114 136/136/114 133/133/114
f 133/133/115 136/136/115 131/131/115
f 135/135/116 137/137/116 136/136/116
f 136/136/117 137/137/117 138/138/117
f 139/139/118 140/140/118 137/137/118
f 137/137/119 140/140/119 138/138/119
f 141/141/120 140/140/120 142/142/120
f 142/142/121 140/140/121 139/139/121
f 143/143/122 144/144/122 142/142/122
f 142/142/123 144/144/123 141/141/123
f 145/145/124 144/144/124 146/146/124
f 146/146/125 144/144/125 143/143/125
f 145/145/126 146/146/126 147/147/126
f 147/147/127 146/146/127 148/148/127
f 149/149/128 147/147/128 150/150/128
f 150/150/129 147/147/129 148/148/129
f 149/149/130 150/150/130 151/151/130
f 151/151/131 150/150/131 152/152/131
f 152/152/132 153/153/132 151/151/132
f 151/151/133 153/153/133 154/154/133
f 154/154/134 153/153/134 155/155/134
f 155/155/135 153/153/135 156/156/135
f 156/156/136 157/157/136 155/155/136
f 155/155/137 157/157/137 158/158/137
f 158/158/138 157/157/138 159/159/138
f 159/159/139 157/157/139 160/160/139
f 160/160/140 161/161/140 159/159/140
f 159/159/141 161/161/141 162/162/141
f 134/134/142 132/132/142 161/161/142
f 161/161/143 132/132/143 162/162/143
f 163/163/144 164/164/144 165/165/144
f 165/165/145 164/164/145 166/166/145
f 167/167/146 165/165/146 168/168/146
f 168/168/147 165/165/147 166/166/147
f 169/169/148 168/168/148 170/170/148
f 170/170/149 168/168/149 166/166/149
f 171/171/150 170/170/150 172/172/150
f 172/172/151 170/170/151 166/166/151
f 172/172/152 166/166/152 173/173/152
f 173/173/153 166/166/153 174/174/153
f 172/172/154 173/173/154 175/175/154
f 175/175/155 173/173/155 176/176/155
f 177/177/156 172/172/156 178/178/156
f 178/178/157 172/172/157 175/175/157
f 179/179/158 180/180/158 181/181/158
f 181/181/159 180/180/159 182/182/159
f 179/179/160 181/181/160 183/183/160
f 183/183/161 181/181/161 184/184/161
f 179/179/162 183/183/162 185/185/162
f 185/185/163 183/183/163 186/186/163
f 179/179/164 185/185/164 187/187/164
f 187/187/165 185/185/165 188/188/165
f 189/189/166 179/179/166 190/190/166
f 190/190/167 179/179/167 187/187/167
f 189/189/168 190/190/168 191/191/168
f 191/191/169 190/190/169 192/192/169
f 193/193/170 194/194/170 192/192/170
f 192/192/171 194/194/171 191/191/171
f 80/80/172 78/78/172 195/195/172
f 195/195/173 78/78/173 196/196/173
f 197/197/174 198/198/174 1/1/174
f 1/1/175 198/198/175 2/2/175
f 199/199/176 200/200/176 201/201/176
f 199/199/177 202/202/177 200/200/177
f 203/203/178 204/204/178 205/205/178
f 204/204/179 203/203/179 206/206/179
f 207/207/180 208/208/180 209/209/180
f 207/207/181 210/210/181 208/208/181
f 211/211/182 212/212/182 213/213/182
f 212/212/183 211/211/183 214/214/183
f 215/215/184 216/216/184 217/217/184
f 217/217/185 216/216/185 218/218/185
f 219/219/186 220/220/186 221/221/186
f 221/221/187 220/220/187 222/222/187
f 223/223/188 224/224/188 225/225/188
f 225/225/189 224/224/189 226/226/189
f 227/227/190 228/228/190 216/216/190
f 216/216/191 228/228/191 218/218/191
f 229/229/192 230/230/192 227/227/192
f 227/227/192 230/230/192 228/228/192
f 231/231/193 232/232/193 233/233/193
f 233/233/194 232/232/194 234/234/194
f 235/235/195 236/236/195 237/237/195
f 237/237/196 236/236/196 238/238/196
f 239/239/197 240/240/197 235/235/197
f 235/235/197 240/240/197 236/236/197
f 241/241/198 237/237/198 242/242/198
f 242/242/198 237/237/198 238/238/198
f 243/243/199 244/244/199 245/245/199
f 245/245/199 244/244/199 246/246/199
f 247/247/200 248/248/200 249/249/200
f 249/249/201 248/248/201 250/250/201
f 251/247/202 249/249/202 252/248/202
f 252/248/202 249/249/202 250/250/202
f 253/251/203 251/247/203 254/252/203
f 254/252/204 251/247/204 252/248/204
f 253/251/205 254/252/205 247/247/205
f 247/247/206 254/252/206 248/248/206
f 255/253/207 256/254/207 257/255/207
f 257/255/208 256/254/208 258/256/208
f 259/257/209 260/258/209 261/259/209
f 261/259/210 260/258/210 262/260/210
f 211/211/211 210/210/211 214/214/211
f 214/214/212 210/210/212 207/207/212
f 203/203/211 202/202/211 206/206/211
f 206/206/212 202/202/212 199/199/212
f 200/200/213 202/202/213 263/261/213
f 263/261/214 202/202/214 264/262/214
f 265/263/215 203/203/215 266/264/215
f 203/203/216 205/205/216 266/264/216
f 263/261/217 267/265/217 268/266/217
f 264/262/218 267/265/218 263/261/218
f 269/267/219 266/264/219 270/268/219
f 269/267/220 265/263/220 266/264/220
f 255/253/221 271/269/221 272/270/221
f 256/254/222 255/253/222 273/271/222
f 273/271/223 255/253/223 272/270/223
f 203/203/224 274/272/224 275/273/224
f 276/274/225 202/202/225 275/273/225
f 202/202/226 203/203/226 275/273/226
f 277/275/227 199/199/227 278/276/227
f 199/199/228 201/201/228 278/276/228
f 204/204/229 279/277/229 280/278/229
f 204/204/230 206/206/230 279/277/230
f 281/279/231 278/276/231 282/280/231
f 281/279/232 277/275/232 278/276/232
f 279/277/233 283/281/233 280/278/233
f 280/278/234 283/281/234 284/282/234
f 208/208/235 210/210/235 285/283/235
f 285/283/236 210/210/236 286/284/236
f 287/285/237 211/211/237 288/286/237
f 211/211/238 213/213/238 288/286/238
f 285/283/239 289/287/239 290/288/239
f 286/284/240 289/287/240 285/283/240
f 291/289/241 288/286/241 292/290/241
f 291/289/242 287/285/242 288/286/242
f 258/256/243 293/291/243 257/255/243
f 257/255/244 293/291/244 294/292/244
f 295/293/245 257/255/245 294/292/245
f 259/257/246 296/294/246 297/295/246
f 260/258/247 259/257/247 298/296/247
f 298/296/248 259/257/248 297/295/248
f 211/211/249 299/297/249 300/298/249
f 301/299/250 210/210/250 300/298/250
f 210/210/226 211/211/226 300/298/226
f 199/199/251 302/300/251 303/301/251
f 304/302/252 206/206/252 303/301/252
f 206/206/253 199/199/253 303/301/253
f 305/303/254 207/207/254 306/304/254
f 207/207/255 209/209/255 306/304/255
f 212/212/256 307/305/256 308/306/256
f 212/212/257 214/214/257 307/305/257
f 309/307/258 306/304/258 310/308/258
f 309/307/259 305/303/259 306/304/259
f 307/305/260 311/309/260 308/306/260
f 308/306/261 311/309/261 312/310/261
f 262/260/262 313/311/262 261/259/262
f 261/259/263 313/311/263 314/312/263
f 315/313/264 261/259/264 314/312/264
f 207/207/265 316/314/265 317/315/265
f 318/316/266 214/214/266 317/315/266
f 214/214/267 207/207/267 317/315/267
